<svg width="100%" height="100%" viewBox="0 0 79 80" version="1.1" xmlns="http://www.w3.org/2000/svg" xmlns:xlink="http://www.w3.org/1999/xlink" xml:space="preserve" xmlns:serif="http://www.serif.com/" style="fill-rule:evenodd;clip-rule:evenodd;stroke-linejoin:round;stroke-miterlimit:2;"><g id="mode_dark"><rect id="Bounds" x="0" y="-0" width="78.623" height="79.049" style="fill:none;"/><circle cx="39.311" cy="39.524" r="15.734" style="fill:#fff;"/><g id="beams"><g id="beam"><path id="beam1" serif:id="beam" d="M44.212,14.515c0,-2.705 -2.196,-4.901 -4.901,-4.901c-2.704,0 -4.901,2.196 -4.901,4.901c0,2.705 2.197,4.901 4.901,4.901c2.705,0 4.901,-2.196 4.901,-4.901Z" style="fill:#fff;"/></g><g id="beam2" serif:id="beam"><path id="beam3" serif:id="beam" d="M60.662,24.892c1.902,-1.902 1.902,-4.99 0,-6.892l-0.04,-0.039c-1.901,-1.902 -4.989,-1.902 -6.891,-0c-1.901,1.901 -1.901,4.989 0,6.891l0.04,0.04c1.902,1.901 4.989,1.901 6.891,-0Z" style="fill:#fff;"/></g><g id="beam4" serif:id="beam"><path id="beam5" serif:id="beam" d="M25.732,61.103c1.91,-1.91 1.91,-5.011 0,-6.921l-0.009,-0.01c-1.91,-1.91 -5.012,-1.91 -6.921,-0c-1.91,1.91 -1.91,5.011 -0,6.921l0.01,0.01c1.909,1.91 5.011,1.91 6.92,-0Z" style="fill:#fff;"/></g><g id="beam6" serif:id="beam"><path id="beam7" serif:id="beam" d="M60.672,54.167c-1.907,-1.907 -5.004,-1.907 -6.911,0l-0.02,0.02c-1.907,1.907 -1.907,5.004 0,6.911c1.907,1.907 5.004,1.907 6.911,-0l0.02,-0.02c1.907,-1.907 1.907,-5.004 0,-6.911Z" style="fill:#fff;"/></g><g id="beam8" serif:id="beam"><path id="beam9" serif:id="beam" d="M14.52,34.623c-2.702,0 -4.896,2.194 -4.896,4.896l0,0.01c0,2.702 2.194,4.896 4.896,4.896c2.702,0 4.896,-2.194 4.896,-4.896l-0,-0.01c-0,-2.702 -2.194,-4.896 -4.896,-4.896Z" style="fill:#fff;"/></g><g id="beam10" serif:id="beam"><path id="beam11" serif:id="beam" d="M44.212,64.534c0,-2.705 -2.196,-4.901 -4.901,-4.901c-2.704,-0 -4.901,2.196 -4.901,4.901c0,2.704 2.197,4.9 4.901,4.9c2.705,0 4.901,-2.196 4.901,-4.9Z" style="fill:#fff;"/></g><g id="beam12" serif:id="beam"><path id="beam13" serif:id="beam" d="M25.73,17.943c-1.911,-1.911 -5.015,-1.911 -6.926,0l-0.005,0.005c-1.911,1.911 -1.911,5.015 0,6.926c1.911,1.911 5.015,1.911 6.926,0l0.005,-0.005c1.911,-1.911 1.911,-5.014 -0,-6.926Z" style="fill:#fff;"/></g><g id="beam14" serif:id="beam"><path id="beam15" serif:id="beam" d="M64.098,34.623c-2.699,0 -4.891,2.192 -4.891,4.892l-0,0.019c-0,2.699 2.192,4.891 4.891,4.891c2.7,0 4.892,-2.192 4.892,-4.891l0,-0.019c0,-2.7 -2.192,-4.892 -4.892,-4.892Z" style="fill:#fff;"/></g></g></g></svg>