<svg width="100%" height="100%" viewBox="0 0 79 80" version="1.1" xmlns="http://www.w3.org/2000/svg" xmlns:xlink="http://www.w3.org/1999/xlink" xml:space="preserve" xmlns:serif="http://www.serif.com/" style="fill-rule:evenodd;clip-rule:evenodd;stroke-linejoin:round;stroke-miterlimit:2;"><g id="mode_light"><rect id="Bounds" x="0" y="-0" width="78.623" height="79.049" style="fill:none;"/><circle cx="39.311" cy="39.524" r="15.734" style="fill:#fff;"/><g id="beams"><g id="beam"><path id="beam1" serif:id="beam" d="M44.212,4.901c0,-2.705 -2.196,-4.901 -4.901,-4.901c-2.704,-0 -4.9,2.196 -4.9,4.901l-0,9.614c-0,2.705 2.196,4.901 4.9,4.901c2.705,0 4.901,-2.196 4.901,-4.901l0,-9.614Z" style="fill:#fff;"/></g><g id="beam2" serif:id="beam"><path id="beam3" serif:id="beam" d="M67.48,18.073c1.913,-1.912 1.913,-5.018 0,-6.931c-1.912,-1.912 -5.018,-1.912 -6.931,0l-6.798,6.799c-1.912,1.912 -1.912,5.018 0,6.931c1.913,1.912 5.018,1.912 6.931,-0l6.798,-6.799Z" style="fill:#fff;"/></g><g id="beam4" serif:id="beam"><path id="beam5" serif:id="beam" d="M25.728,61.108c1.912,-1.913 1.912,-5.018 -0,-6.931c-1.913,-1.913 -5.019,-1.913 -6.931,-0l-6.799,6.798c-1.912,1.913 -1.912,5.019 0,6.931c1.913,1.913 5.019,1.913 6.931,0l6.799,-6.798Z" style="fill:#fff;"/></g><g id="beam6" serif:id="beam"><path id="beam7" serif:id="beam" d="M60.682,54.177c-1.913,-1.913 -5.018,-1.913 -6.931,-0c-1.912,1.913 -1.912,5.018 0,6.931l6.798,6.798c1.913,1.913 5.019,1.913 6.931,0c1.913,-1.912 1.913,-5.018 0,-6.931l-6.798,-6.798Z" style="fill:#fff;"/></g><g id="beam8" serif:id="beam"><path id="beam9" serif:id="beam" d="M4.901,34.623c-2.705,0 -4.901,2.196 -4.901,4.901c0,2.705 2.196,4.901 4.901,4.901l9.614,0c2.705,0 4.901,-2.196 4.901,-4.901c0,-2.705 -2.196,-4.901 -4.901,-4.901l-9.614,0Z" style="fill:#fff;"/></g><g id="beam10" serif:id="beam"><path id="beam11" serif:id="beam" d="M44.212,64.534c0,-2.705 -2.196,-4.901 -4.901,-4.901c-2.704,-0 -4.9,2.196 -4.9,4.901l-0,9.614c-0,2.705 2.196,4.901 4.9,4.901c2.705,-0 4.901,-2.196 4.901,-4.901l0,-9.614Z" style="fill:#fff;"/></g><g id="beam12" serif:id="beam"><path id="beam13" serif:id="beam" d="M18.929,11.142c-1.912,-1.912 -5.018,-1.912 -6.931,0c-1.912,1.913 -1.912,5.019 0,6.931l6.799,6.799c1.912,1.912 5.018,1.912 6.931,-0c1.912,-1.913 1.912,-5.019 -0,-6.931l-6.799,-6.799Z" style="fill:#fff;"/></g><g id="beam14" serif:id="beam"><path id="beam15" serif:id="beam" d="M64.108,34.623c-2.705,0 -4.901,2.196 -4.901,4.901c-0,2.705 2.196,4.901 4.901,4.901l9.614,0c2.705,0 4.901,-2.196 4.901,-4.901c-0,-2.705 -2.196,-4.901 -4.901,-4.901l-9.614,0Z" style="fill:#fff;"/></g></g></g></svg>